# xmcd CD database file
#
# Track frame offsets:
#	150
#	17767
#	37532
#	54717
#	71360
#	86310
#	111010
#	133700
#	151285
#	169952
#	182957
#	201545
#
# Disc length: 2974 seconds
#
# Revision: 1
# Processed by: cddbd v1.5.2PL0 Copyright (c) Steve Scherf et al.
# Submitted via: CDex 1.51
#
DISCID=9c0b9c0c
DTITLE=Various Artist - JAZZ THING
DYEAR=2006
DGENRE=Jazz
TTITLE0=PETE PHILLY and PERQUISITE "GRATEFUL(album version)"
TTITLE1=KEV BROWN "ALWAYS"
TTITLE2=DJ Jazzy Jeff "For Da Love Of Da Game feat. Baby Black and Pauly Yamz"
TTITLE3=SOUND PROVIDERS "FOR OLD TIME SAKE feat. ASHERU OF UNSPOKEN HEARD (STREET)"
TTITLE4=Jazz Liberatorz "FORCE BE WITH YOU feat. T.LOVE"
TTITLE5=KERO ONE "CHECK THE BLUEPRINTS"
TTITLE6=The Procussions "Wegotta!"
TTITLE7=NOEL ZANCANELLA "Lovely"
TTITLE8=nicknack "Soul Nourishment"
TTITLE9=Jazz Liberatorz "LOOP PRISONER"
TTITLE10=SOUND PROVIDERS "IT'S GONNA BEE PART ? feat. WEE BEE FOOLISH"
TTITLE11=LONE CATALYSTS "RENAISSANCE feat. ALL Natural"
EXTD=YEAR: 2006
EXTT0=
EXTT1=
EXTT2=
EXTT3=
EXTT4=
EXTT5=
EXTT6=
EXTT7=
EXTT8=
EXTT9=
EXTT10=
EXTT11=
PLAYORDER=
